PathFileType	4	(X/Y/Z)	/Users/itak/Documents/Research/Walk-IL/dataset/trc/00449_00167.trc
DataRate	CameraRate	NumFrames	NumMarkers	Units	OrigDataRate	OrigDataStartFrame	OrigNumFrames
100.000000	100.000000	4	54	mm	100.000000	417	477
Frame#	Time	RPSI			LPSI			L3			STRN			T10			C7			CLAV			RBAK			LBAK			LSHO			LUPA			LAEL			LAOL			LWPS			LFRA			LIFD			LHPS			LHTS			RSHO			RUPA			RAEL			RAOL			RWTS			RWPS			RFRA			RIFD			RHTS			RHPS			RBHD			LFHD			RFHD			LBHD			LHIP			RHIP			RASI			LASI			LKNE			LTHI			LANK			LTIP			LTOE			LMT1			LMT5			LHEE			RKNE			RTHI			RANK			RTIP			RTOE			RMT1			RMT5			RHEE			LWTS			*53			
		X1	Y1	Z1	X2	Y2	Z2	X3	Y3	Z3	X4	Y4	Z4	X5	Y5	Z5	X6	Y6	Z6	X7	Y7	Z7	X8	Y8	Z8	X9	Y9	Z9	X10	Y10	Z10	X11	Y11	Z11	X12	Y12	Z12	X13	Y13	Z13	X14	Y14	Z14	X15	Y15	Z15	X16	Y16	Z16	X17	Y17	Z17	X18	Y18	Z18	X19	Y19	Z19	X20	Y20	Z20	X21	Y21	Z21	X22	Y22	Z22	X23	Y23	Z23	X24	Y24	Z24	X25	Y25	Z25	X26	Y26	Z26	X27	Y27	Z27	X28	Y28	Z28	X29	Y29	Z29	X30	Y30	Z30	X31	Y31	Z31	X32	Y32	Z32	X33	Y33	Z33	X34	Y34	Z34	X35	Y35	Z35	X36	Y36	Z36	X37	Y37	Z37	X38	Y38	Z38	X39	Y39	Z39	X40	Y40	Z40	X41	Y41	Z41	X42	Y42	Z42	X43	Y43	Z43	X44	Y44	Z44	X45	Y45	Z45	X46	Y46	Z46	X47	Y47	Z47	X48	Y48	Z48	X49	Y49	Z49	X50	Y50	Z50	X51	Y51	Z51	X52	Y52	Z52	X53	Y53	Z53	X54	Y54	Z54	

418	4.17	1105.1845703125	931.9671020507812	990.8108520507812	1190.167846679688	934.5822143554688	878.5728759765625	1144.062377929688	1036.741577148438	954.4615478515625	1373.826293945312	1242.11083984375	1092.473510742188	1127.586303710938	1160.603149414062	943.4447631835938	1172.813110351562	1431.777465820312	990.348388671875	1343.137329101562	1355.33740234375	1067.004638671875	1071.929321289062	1311.100219726562	1040.3740234375	1192.6826171875	1381.423095703125	888.1195068359375	1322.056274414062	1409.164794921875	865.6419067382812	1361.726440429688	1296.971557617188	771.6060791015625	1399.433959960938	1087.796875	731.048583984375	1299.4736328125	1070.493408203125	748.7240600585938	1443.172607421875	872.7396240234375	726.1698608398438	1426.186401367188	1001.780822753906	728.0685424804688	1476.913452148438	728.033447265625	808.4263916015625	1460.252197265625	791.9735717773438	733.3634033203125	1488.226196289062	808.0635375976562	797.8712768554688	1152.685546875	1400.199462890625	1165.706787109375	1102.687744140625	1336.233032226562	1222.314697265625	1085.679931640625	1047.357299804688	1266.222412109375	1056.136962890625	1035.246948242188	1205.9951171875	1185.194213867188	841.66845703125	1263.918701171875	1101.148803710938	829.2788696289062	1284.769165039062	1081.75146484375	989.304443359375	1273.508911132812	1177.414916992188	682.8898315429688	1269.846801757812	1189.490234375	740.4368286132812	1280.991088867188	1114.101318359375	741.2045288085938	1289.844482421875	1198.30615234375	1628.060302734375	1096.899658203125	1394.961547851562	1646.677612304688	1036.594970703125	1325.413452148438	1648.4853515625	1146.6083984375	1278.594116210938	1630.044067382812	939.4121704101562	1377.138305664062	849.286865234375	867.9401245117188	1119.994262695312	840.9241333007812	1174.358764648438	1237.973876953125	888.7770385742188	1184.460083007812	1403.598388671875	892.2268676757812	987.7017822265625	1422.505737304688	431.4374694824219	921.0286254882812	1436.860595703125	587.3101196289062	911.7166748046875	1333.996948242188	19.74722671508789	831.9806518554688	1408.322265625	276.5163879394531	888.8563232421875	1471.410766601562	30.28557205200195	1030.580688476562	1394.566284179688	42.39965438842773	1008.10595703125	1460.821655273438	29.54680824279785	916.7344970703125	1258.658081054688	14.27929306030273	842.68798828125	1192.744140625	455.4031982421875	1209.06884765625	1157.914184570312	715.9666748046875	1220.575317382812	1109.910766601562	32.89748001098633	1168.873291015625	1171.908325195312	309.2554016113281	1215.871948242188	1315.772583007812	35.67560958862305	1255.7978515625	1284.622436523438	41.18654632568359	1189.909790039062	1204.788452148438	35.29451751708984	1265.806640625	1083.33203125	19.97068786621094	1094.352783203125	1455.73193359375	890.715087890625	796.951904296875	nan	nan	nan	
419	4.18	1105.24072265625	931.9724731445312	990.8551025390625	1190.2587890625	934.7077026367188	878.4441528320312	1144.254028320312	1036.735961914062	954.3073120117188	1373.810668945312	1242.206298828125	1092.37841796875	1127.715576171875	1160.564208984375	943.254150390625	1172.774780273438	1431.7861328125	990.1091918945312	1343.0751953125	1355.383666992188	1066.91259765625	1071.980224609375	1311.1240234375	1039.8818359375	1192.69140625	1381.52099609375	887.795166015625	1322.058715820312	1409.297485351562	865.4680786132812	1361.815795898438	1297.195190429688	771.505126953125	1400.176879882812	1088.052978515625	731.3802490234375	1300.189575195312	1070.483520507812	748.8657836914062	1445.255981445312	873.2353515625	728.0690307617188	1427.380737304688	1002.170043945312	729.0244140625	1479.781860351562	729.48681640625	811.6881103515625	1462.867065429688	792.6349487304688	735.9887084960938	1490.545532226562	809.5001831054688	800.4529418945312	1152.499389648438	1400.226196289062	1165.34423828125	1102.264892578125	1336.35546875	1221.810180664062	1083.788696289062	1047.5888671875	1265.015625	1054.534545898438	1035.930419921875	1204.576049804688	1181.438354492188	840.9913940429688	1262.781860351562	1097.128784179688	829.3064575195312	1282.927001953125	1079.310302734375	989.5532836914062	1272.104858398438	1172.0576171875	682.3391723632812	1267.825317382812	1184.845825195312	739.9886474609375	1279.6806640625	1109.086669921875	740.9556274414062	1287.468627929688	1198.036865234375	1628.0341796875	1096.86083984375	1394.662719726562	1646.948608398438	1036.713500976562	1324.985961914062	1648.518432617188	1146.56298828125	1278.403564453125	1630.2783203125	939.3676147460938	1377.27685546875	849.354736328125	867.7625122070312	1119.956420898438	841.1668090820312	1174.354614257812	1238.04736328125	888.8046875	1184.363403320312	1403.728881835938	892.2567138671875	987.5379028320312	1422.6083984375	431.5243225097656	920.751220703125	1436.971801757812	587.360107421875	911.4781494140625	1334.01025390625	19.67076301574707	831.8147583007812	1408.333129882812	276.6087341308594	888.5459594726562	1471.541625976562	30.22693252563477	1030.42919921875	1394.647338867188	42.94948959350586	1007.873107910156	1460.860229492188	29.54057693481445	916.6187744140625	1258.635986328125	14.26237201690674	842.601806640625	1192.578857421875	455.3275146484375	1208.74267578125	1157.7236328125	716.115478515625	1220.298095703125	1109.850708007812	32.93109893798828	1168.913208007812	1171.834716796875	309.2617492675781	1215.7470703125	1315.696655273438	35.6609001159668	1255.823486328125	1284.578247070312	41.18506622314453	1189.94091796875	1204.729370117188	35.30363464355469	1265.77490234375	1083.291625976562	19.92866325378418	1094.358276367188	1457.409545898438	891.8502197265625	798.754638671875	nan	nan	nan	
420	4.19	1105.31640625	931.98828125	990.8865356445312	1190.364990234375	934.8773193359375	878.3098754882812	1144.475708007812	1036.734741210938	954.1453247070312	1373.801513671875	1242.325561523438	1092.32080078125	1127.861450195312	1160.529296875	943.1005249023438	1172.739135742188	1431.798706054688	989.8455810546875	1343.006713867188	1355.435668945312	1066.839599609375	1072.0419921875	1311.167724609375	1039.361206054688	1192.710205078125	1381.607666015625	887.4963989257812	1322.0537109375	1409.456787109375	865.2881469726562	1361.93798828125	1297.453002929688	771.4234619140625	1400.929931640625	1088.340576171875	731.7041625976562	1300.92529296875	1070.507934570312	748.9285278320312	1447.255615234375	873.7555541992188	729.86376953125	1428.557373046875	1002.592163085938	729.9476318359375	1482.545776367188	730.983642578125	814.870849609375	1465.424438476562	793.3258666992188	738.5140991210938	1492.779663085938	810.968994140625	802.92333984375	1152.290161132812	1400.299194335938	1164.958862304688	1101.740356445312	1336.527465820312	1221.253173828125	1081.7724609375	1047.876953125	1263.814819335938	1052.87060546875	1036.58203125	1203.172485351562	1177.8701171875	840.5531005859375	1261.8427734375	1093.320190429688	829.4511108398438	1281.208129882812	1076.834716796875	989.8590087890625	1270.723388671875	1167.098266601562	681.8159790039062	1265.965576171875	1180.482788085938	739.7422485351562	1278.610473632812	1104.512451171875	740.8931884765625	1285.354248046875	1197.728393554688	1628.013671875	1096.796752929688	1394.35791015625	1647.26416015625	1036.846069335938	1324.50390625	1648.5712890625	1146.487182617188	1278.238403320312	1630.529907226562	939.3171997070312	1377.388793945312	849.4547729492188	867.614013671875	1119.911376953125	841.4220581054688	1174.361450195312	1238.120727539062	888.8368530273438	1184.28857421875	1403.888305664062	892.319091796875	987.4143676757812	1422.643676757812	431.6353759765625	920.4325561523438	1437.0458984375	587.4407958984375	911.2112426757812	1334.027221679688	19.6064567565918	831.6771850585938	1408.282836914062	276.7494812011719	888.1682739257812	1471.630126953125	30.17437553405762	1030.3056640625	1394.679321289062	43.41526412963867	1007.6572265625	1460.887451171875	29.54136657714844	916.5227661132812	1258.6162109375	14.25034141540527	842.5228881835938	1192.415405273438	455.2248840332031	1208.425537109375	1157.602905273438	716.2866821289062	1220.05712890625	1109.79736328125	32.95489120483398	1168.960815429688	1171.7421875	309.277099609375	1215.6171875	1315.632446289062	35.65027618408203	1255.857421875	1284.536010742188	41.19005584716797	1189.9833984375	1204.676635742188	35.30343627929688	1265.750610351562	1083.249755859375	19.89188957214355	1094.361450195312	1459.008544921875	892.989501953125	800.451416015625	nan	nan	nan	
421	4.2	1105.41845703125	932.0214233398438	990.8906860351562	1190.487060546875	935.0786743164062	878.18212890625	1144.715087890625	1036.726440429688	953.983154296875	1373.793823242188	1242.465942382812	1092.299682617188	1128.027465820312	1160.502563476562	942.9744873046875	1172.705078125	1431.812744140625	989.559814453125	1342.921752929688	1355.496215820312	1066.79052734375	1072.10986328125	1311.222900390625	1038.812133789062	1192.735473632812	1381.680297851562	887.2249755859375	1322.042236328125	1409.639404296875	865.1068115234375	1362.102172851562	1297.73828125	771.3651123046875	1401.709350585938	1088.648803710938	732.0274047851562	1301.701171875	1070.5625	748.9235229492188	1449.151733398438	874.2779541015625	731.511474609375	1429.724731445312	1003.031433105469	730.8240356445312	1485.180786132812	732.4775390625	817.8877563476562	1467.892700195312	794.0208129882812	740.8743896484375	1494.913696289062	812.423583984375	805.2156982421875	1152.040161132812	1400.40673828125	1164.555786132812	1101.104370117188	1336.733642578125	1220.636962890625	1079.640869140625	1048.20654296875	1262.617797851562	1051.16357421875	1037.1845703125	1201.789184570312	1174.498657226562	840.3145141601562	1261.098266601562	1089.7333984375	829.6786499023438	1279.611083984375	1074.335693359375	990.2039184570312	1269.369018554688	1162.584716796875	681.368408203125	1264.3564453125	1176.36083984375	739.5444946289062	1277.68701171875	1100.385986328125	740.9991455078125	1283.518310546875	1197.37841796875	1627.994873046875	1096.701416015625	1394.053344726562	1647.615112304688	1036.987670898438	1323.971435546875	1648.647827148438	1146.392333984375	1278.100830078125	1630.7861328125	939.2565307617188	1377.475219726562	849.5805053710938	867.4944458007812	1119.8984375	841.6646728515625	1174.371826171875	1238.2021484375	888.8739624023438	1184.229370117188	1404.078857421875	892.4122314453125	987.3292236328125	1422.612060546875	431.7570190429688	920.09521484375	1437.079223632812	587.5420532226562	910.9290161132812	1334.045532226562	19.55506324768066	831.5717163085938	1408.186401367188	276.9346313476562	887.7412719726562	1471.678466796875	30.12808799743652	1030.208984375	1394.678100585938	43.77725219726562	1007.470947265625	1460.898803710938	29.54644584655762	916.4502563476562	1258.600463867188	14.24525833129883	842.453369140625	1192.272094726562	455.1250610351562	1208.146118164062	1157.571044921875	716.4636840820312	1219.8505859375	1109.752075195312	32.96751403808594	1169.00830078125	1171.62744140625	309.3003540039062	1215.475952148438	1315.58349609375	35.64509582519531	1255.891723632812	1284.498046875	41.20039749145508	1190.03173828125	1204.632446289062	35.29563140869141	1265.734008789062	1083.212036132812	19.86228179931641	1094.36181640625	1460.527465820312	894.0950927734375	802.0021362304688	nan	nan	nan	
